<?xml version="1.0" encoding="UTF-8" standalone="no"?>
<!-- Created with Inkscape (http://www.inkscape.org/) -->

<svg
   width="264.00006"
   height="84"
   viewBox="0 0 264.00006 84"
   version="1.1"
   id="svg1"
   xmlns:xlink="http://www.w3.org/1999/xlink"
   xmlns="http://www.w3.org/2000/svg"
   xmlns:svg="http://www.w3.org/2000/svg">
  <defs
     id="defs1">
    <linearGradient
       id="linearGradient1502">
      <stop
         style="stop-color:#fefefe;stop-opacity:1;"
         offset="0"
         id="stop1500" />
      <stop
         style="stop-color:#141414;stop-opacity:0.99607843;"
         offset="0.54208755"
         id="stop1501" />
      <stop
         style="stop-color:#8f8f8f;stop-opacity:1;"
         offset="1"
         id="stop1502" />
    </linearGradient>
    <filter
       style="color-interpolation-filters:sRGB"
       id="filter1459"
       x="-0.049999998"
       y="-0.2"
       width="1.1"
       height="1.4">
      <feFlood
         result="flood"
         in="SourceGraphic"
         flood-opacity="0.898039"
         flood-color="rgb(255,255,255)"
         id="feFlood1458" />
      <feGaussianBlur
         result="blur"
         in="SourceGraphic"
         stdDeviation="2.4999999"
         id="feGaussianBlur1458" />
      <feOffset
         result="offset"
         in="blur"
         dx="0.000000"
         dy="0.000000"
         id="feOffset1458" />
      <feComposite
         result="comp1"
         operator="out"
         in="flood"
         in2="offset"
         id="feComposite1458" />
      <feComposite
         result="fbSourceGraphic"
         operator="atop"
         in="comp1"
         in2="SourceGraphic"
         id="feComposite1459" />
      <feColorMatrix
         result="fbSourceGraphicAlpha"
         in="fbSourceGraphic"
         values="0 0 0 -1 0 0 0 0 -1 0 0 0 0 -1 0 0 0 0 1 0"
         id="feColorMatrix1459" />
      <feFlood
         id="feFlood1459"
         result="flood"
         in="fbSourceGraphic"
         flood-opacity="0.898039"
         flood-color="rgb(255,255,255)" />
      <feGaussianBlur
         id="feGaussianBlur1459"
         result="blur"
         in="fbSourceGraphic"
         stdDeviation="2.500000" />
      <feOffset
         id="feOffset1459"
         result="offset"
         in="blur"
         dx="0.000000"
         dy="0.000000" />
      <feComposite
         id="feComposite1460"
         result="comp1"
         operator="in"
         in="flood"
         in2="offset" />
      <feComposite
         id="feComposite1461"
         result="comp2"
         operator="over"
         in="fbSourceGraphic"
         in2="comp1" />
    </filter>
    <radialGradient
       xlink:href="#linearGradient1502"
       id="radialGradient1482"
       cx="995.49896"
       cy="784.64264"
       fx="995.49896"
       fy="784.64264"
       r="120.00001"
       gradientTransform="matrix(1,0,0,0.24999998,-6.5989095,771.75479)"
       gradientUnits="userSpaceOnUse" />
  </defs>
  <g
     id="layer1"
     transform="translate(-856.90009,-925.91547)">
    <path
       id="rect4"
       style="opacity:0.175337;fill:url(#radialGradient1482);fill-opacity:1;stroke:none;stroke-width:4.123;stroke-linecap:round;stroke-linejoin:round;stroke-dasharray:none"
       d="m 878.50162,937.91544 c -5.3193,0 -9.60156,4.28228 -9.60156,9.60156 v 40.79687 c 0,5.3193 4.28226,9.60157 9.60156,9.60157 h 220.79688 c 5.3193,0 9.6016,-4.28227 9.6016,-9.60157 V 947.517 c 0,-5.31928 -4.2823,-9.60156 -9.6016,-9.60156 z m 68.31445,13.36914 c 2.912,0 5.26465,0.30411 7.05664,0.91211 1.824,0.576 3.15238,1.58344 3.98438,3.02344 0.864,1.40799 1.29492,3.37629 1.29492,5.90429 0,1.536 -0.20705,2.89608 -0.62305,4.08008 -0.384,1.152 -1.04075,2.0792 -1.96875,2.7832 -0.928,0.704 -2.19101,1.15175 -3.79101,1.34375 v 0.24024 c 0.576,0.096 1.16739,0.31987 1.77539,0.67187 0.64,0.352 1.23139,0.87999 1.77539,1.58399 0.544,0.672 0.94517,1.58433 1.20117,2.73632 l 2.87891,10.32032 h -7.72852 l -2.54297,-10.08008 c -0.288,-1.088 -0.72087,-1.83986 -1.29687,-2.25586 -0.544,-0.416 -1.31074,-0.625 -2.30274,-0.625 h -5.23242 v 12.96094 h -7.24805 v -33.11914 c 1.344,-0.16 2.60702,-0.27194 3.79102,-0.33594 1.184,-0.064 2.48067,-0.0977 3.88867,-0.0977 1.408,-0.032 3.10389,-0.0469 5.08789,-0.0469 z m -0.14453,5.51953 c -2.11876,0 -3.71666,0.0193 -5.375,0.0352 v 9.56445 h 5.375 c 1.28,0 2.28939,-0.12681 3.02539,-0.38281 0.768,-0.288 1.29599,-0.78429 1.58399,-1.48828 0.32,-0.704 0.47851,-1.67974 0.47851,-2.92774 0,-1.28 -0.15851,-2.25573 -0.47851,-2.92773 -0.288,-0.704 -0.81599,-1.18541 -1.58399,-1.44141 -0.736,-0.288 -1.74539,-0.43164 -3.02539,-0.43164 z m 28.96875,3.74414 c 4,0 6.8638,0.68845 8.5918,2.06445 1.76,1.344 2.64062,3.35888 2.64062,6.04688 0.032,2.176 -0.51281,3.80848 -1.63281,4.89648 -1.12,1.056 -3.05464,1.58399 -5.80664,1.58399 h -8.44531 c 0.0878,0.72396 0.21275,1.35344 0.38086,1.87304 0.352,1.056 0.94339,1.79104 1.77539,2.20704 0.864,0.41599 2.04873,0.62499 3.55273,0.625 1.088,0 2.43125,-0.0337 4.03125,-0.0977 1.632,-0.096 3.26449,-0.23964 4.89649,-0.43164 l 0.67187,4.36914 c -0.928,0.448 -1.98397,0.79869 -3.16797,1.05469 -1.184,0.256 -2.40044,0.43329 -3.64843,0.52929 -1.248,0.128 -2.44762,0.19141 -3.59961,0.19141 -3.008,0 -5.44088,-0.43288 -7.29688,-1.29688 -1.824,-0.89599 -3.15042,-2.25608 -3.98242,-4.08007 -0.8,-1.824 -1.20117,-4.15982 -1.20117,-7.00782 0,-3.10399 0.41604,-5.56662 1.24804,-7.39062 0.832,-1.824 2.14355,-3.1375 3.93555,-3.9375 1.792,-0.8 4.14464,-1.19922 7.05664,-1.19922 z m 55.91991,0 c 2.976,0 5.3604,0.41605 7.1524,1.24805 1.792,0.8 3.0718,2.11155 3.8398,3.93554 0.8,1.824 1.1992,4.27176 1.1992,7.34375 0,3.008 -0.3992,5.42405 -1.1992,7.24805 -0.768,1.824 -2.0478,3.1375 -3.8398,3.9375 -1.792,0.8 -4.1764,1.19922 -7.1524,1.19922 -2.944,0 -5.3283,-0.39922 -7.1523,-1.19922 -1.792,-0.8 -3.0867,-2.1135 -3.8867,-3.9375 -0.8,-1.824 -1.2012,-4.24005 -1.2012,-7.24805 0,-3.07199 0.4012,-5.51975 1.2012,-7.34375 0.8,-1.82399 2.0947,-3.13554 3.8867,-3.93554 1.824,-0.832 4.2083,-1.24805 7.1523,-1.24805 z m -24.4805,0.0488 c 2.976,0 5.1048,1.08767 6.3848,3.26367 1.28,2.176 1.9199,5.29538 1.9199,9.35938 0,3.16799 -0.3358,5.64745 -1.0078,7.43945 -0.64,1.792 -1.6325,3.05697 -2.9765,3.79297 -1.312,0.704 -2.9594,1.05468 -4.9434,1.05468 -1.696,0 -3.3117,-0.23875 -4.8477,-0.71875 -1.1705,-0.36579 -2.23893,-0.92071 -3.20503,-1.6582 0.052,0.67249 0.1108,1.3384 0.1328,2.04102 0.064,1.056 0.079,2.09709 0.047,3.12109 v 5.71094 h -7.1036 v -32.83203 h 5.7598 l 0.5547,3.5625 c 0.5967,-0.73027 1.3183,-1.39368 2.1816,-1.97852 1.02403,-0.672 2.14343,-1.19998 3.35943,-1.58398 1.216,-0.384 2.4641,-0.57422 3.7441,-0.57422 z m -31.19917,4.94336 c -1.312,0 -2.33627,0.17534 -3.07227,0.52734 -0.736,0.352 -1.24716,1.02363 -1.53516,2.01563 -0.22054,0.75963 -0.35654,1.78722 -0.4082,3.07226 h 6.59961 c 1.088,0 1.77645,-0.22387 2.06445,-0.67187 0.32,-0.48 0.47852,-1.1348 0.47852,-1.9668 -0.032,-1.12 -0.36781,-1.88869 -1.00781,-2.30469 -0.608,-0.448 -1.64715,-0.67187 -3.11914,-0.67187 z m 55.67967,0.1914 c -1.216,0 -2.1749,0.209 -2.8789,0.625 -0.704,0.416 -1.2003,1.15104 -1.4883,2.20703 -0.288,1.056 -0.4336,2.55973 -0.4336,4.51172 0,1.92 0.1456,3.40885 0.4336,4.46485 0.288,1.056 0.7843,1.79103 1.4883,2.20703 0.704,0.384 1.6629,0.57617 2.8789,0.57617 1.216,0 2.1769,-0.19217 2.8809,-0.57617 0.704,-0.416 1.1983,-1.15103 1.4863,-2.20703 0.288,-1.056 0.4336,-2.54485 0.4336,-4.46485 0,-1.95199 -0.1456,-3.45572 -0.4336,-4.51172 -0.288,-1.05599 -0.7823,-1.79103 -1.4863,-2.20703 -0.704,-0.416 -1.6649,-0.625 -2.8809,-0.625 z m -27.3594,0.28907 c -1.024,0 -1.968,0.20704 -2.832,0.62304 -0.8241,0.36628 -1.75723,0.9033 -2.78513,1.58985 v 11.1582 c 0.8141,0.24579 1.61343,0.48659 2.30463,0.69141 0.896,0.224 1.9035,0.33593 3.0235,0.33593 1.024,0 1.8412,-0.17534 2.4492,-0.52734 0.608,-0.352 1.0389,-1.04045 1.2949,-2.06445 0.288,-1.056 0.4317,-2.5746 0.4317,-4.5586 0,-1.95199 -0.1269,-3.44084 -0.3829,-4.46484 -0.256,-1.056 -0.672,-1.77616 -1.248,-2.16016 -0.576,-0.416 -1.3279,-0.62304 -2.2559,-0.62304 z" />
    <path
       id="path1238"
       style="opacity:0.593449;mix-blend-mode:screen;fill:#000000;fill-opacity:1;stroke:none;stroke-width:4.123;stroke-linecap:round;stroke-linejoin:round;stroke-dasharray:none;filter:url(#filter1459)"
       d="m 878.50165,937.91544 c -5.3193,0 -9.60156,4.28228 -9.60156,9.60156 v 40.79687 c 0,5.3193 4.28226,9.60157 9.60156,9.60157 h 220.79685 c 5.3193,0 9.6016,-4.28227 9.6016,-9.60157 V 947.517 c 0,-5.31928 -4.2823,-9.60156 -9.6016,-9.60156 z m 68.31445,13.36914 c 2.912,0 5.26465,0.30411 7.05664,0.91211 1.824,0.576 3.15238,1.58344 3.98438,3.02344 0.864,1.40799 1.29492,3.37629 1.29492,5.90429 0,1.536 -0.20705,2.89608 -0.62305,4.08008 -0.384,1.152 -1.04075,2.0792 -1.96875,2.7832 -0.928,0.704 -2.19101,1.15175 -3.79101,1.34375 v 0.24024 c 0.576,0.096 1.16739,0.31987 1.77539,0.67187 0.64,0.352 1.23139,0.87999 1.77539,1.58399 0.544,0.672 0.94517,1.58433 1.20117,2.73632 l 2.87891,10.32032 h -7.72852 l -2.54297,-10.08008 c -0.288,-1.088 -0.72087,-1.83986 -1.29687,-2.25586 -0.544,-0.416 -1.31074,-0.625 -2.30274,-0.625 h -5.23242 v 12.96094 h -7.24805 v -33.11914 c 1.344,-0.16 2.60702,-0.27194 3.79102,-0.33594 1.184,-0.064 2.48067,-0.0977 3.88867,-0.0977 1.408,-0.032 3.10389,-0.0469 5.08789,-0.0469 z m -0.14453,5.51953 c -2.11876,0 -3.71666,0.0193 -5.375,0.0352 v 9.56445 h 5.375 c 1.28,0 2.28939,-0.12681 3.02539,-0.38281 0.768,-0.288 1.29599,-0.78429 1.58399,-1.48828 0.32,-0.704 0.47851,-1.67974 0.47851,-2.92774 0,-1.28 -0.15851,-2.25573 -0.47851,-2.92773 -0.288,-0.704 -0.81599,-1.18541 -1.58399,-1.44141 -0.736,-0.288 -1.74539,-0.43164 -3.02539,-0.43164 z m 28.96875,3.74414 c 4,0 6.8638,0.68845 8.5918,2.06445 1.76,1.344 2.64062,3.35888 2.64062,6.04688 0.032,2.176 -0.51281,3.80848 -1.63281,4.89648 -1.12,1.056 -3.05464,1.58399 -5.80664,1.58399 h -8.44531 c 0.0878,0.72396 0.21275,1.35344 0.38086,1.87304 0.352,1.056 0.94339,1.79104 1.77539,2.20704 0.864,0.41599 2.04873,0.62499 3.55273,0.625 1.088,0 2.43125,-0.0337 4.03125,-0.0977 1.632,-0.096 3.26449,-0.23964 4.89649,-0.43164 l 0.67187,4.36914 c -0.928,0.448 -1.98397,0.79869 -3.16797,1.05469 -1.184,0.256 -2.40044,0.43329 -3.64843,0.52929 -1.248,0.128 -2.44762,0.19141 -3.59961,0.19141 -3.008,0 -5.44088,-0.43288 -7.29688,-1.29688 -1.824,-0.89599 -3.15042,-2.25608 -3.98242,-4.08007 -0.8,-1.824 -1.20117,-4.15982 -1.20117,-7.00782 0,-3.10399 0.41604,-5.56662 1.24804,-7.39062 0.832,-1.824 2.14355,-3.1375 3.93555,-3.9375 1.792,-0.8 4.14464,-1.19922 7.05664,-1.19922 z m 55.91988,0 c 2.976,0 5.3604,0.41605 7.1524,1.24805 1.792,0.8 3.0718,2.11155 3.8398,3.93554 0.8,1.824 1.1992,4.27176 1.1992,7.34375 0,3.008 -0.3992,5.42405 -1.1992,7.24805 -0.768,1.824 -2.0478,3.1375 -3.8398,3.9375 -1.792,0.8 -4.1764,1.19922 -7.1524,1.19922 -2.944,0 -5.3283,-0.39922 -7.1523,-1.19922 -1.792,-0.8 -3.0867,-2.1135 -3.8867,-3.9375 -0.8,-1.824 -1.2012,-4.24005 -1.2012,-7.24805 0,-3.07199 0.4012,-5.51975 1.2012,-7.34375 0.8,-1.82399 2.0947,-3.13554 3.8867,-3.93554 1.824,-0.832 4.2083,-1.24805 7.1523,-1.24805 z m -24.4805,0.0488 c 2.976,0 5.1048,1.08767 6.3848,3.26367 1.28,2.176 1.9199,5.29538 1.9199,9.35938 0,3.16799 -0.3358,5.64745 -1.0078,7.43945 -0.64,1.792 -1.6325,3.05697 -2.9765,3.79297 -1.312,0.704 -2.9594,1.05468 -4.9434,1.05468 -1.696,0 -3.3117,-0.23875 -4.8477,-0.71875 -1.1705,-0.36579 -2.23889,-0.92071 -3.20499,-1.6582 0.052,0.67249 0.1108,1.3384 0.1328,2.04102 0.064,1.056 0.079,2.09709 0.047,3.12109 v 5.71094 h -7.10358 v -32.83203 h 5.75978 l 0.5547,3.5625 c 0.5967,-0.73027 1.3183,-1.39368 2.1816,-1.97852 1.02399,-0.672 2.14339,-1.19998 3.35939,-1.58398 1.216,-0.384 2.4641,-0.57422 3.7441,-0.57422 z m -31.19914,4.94336 c -1.312,0 -2.33627,0.17534 -3.07227,0.52734 -0.736,0.352 -1.24716,1.02363 -1.53516,2.01563 -0.22054,0.75963 -0.35654,1.78722 -0.4082,3.07226 h 6.59961 c 1.088,0 1.77645,-0.22387 2.06445,-0.67187 0.32,-0.48 0.47852,-1.1348 0.47852,-1.9668 -0.032,-1.12 -0.36781,-1.88869 -1.00781,-2.30469 -0.608,-0.448 -1.64715,-0.67187 -3.11914,-0.67187 z m 55.67964,0.1914 c -1.216,0 -2.1749,0.209 -2.8789,0.625 -0.704,0.416 -1.2003,1.15104 -1.4883,2.20703 -0.288,1.056 -0.4336,2.55973 -0.4336,4.51172 0,1.92 0.1456,3.40885 0.4336,4.46485 0.288,1.056 0.7843,1.79103 1.4883,2.20703 0.704,0.384 1.6629,0.57617 2.8789,0.57617 1.216,0 2.1769,-0.19217 2.8809,-0.57617 0.704,-0.416 1.1983,-1.15103 1.4863,-2.20703 0.288,-1.056 0.4336,-2.54485 0.4336,-4.46485 0,-1.95199 -0.1456,-3.45572 -0.4336,-4.51172 -0.288,-1.05599 -0.7823,-1.79103 -1.4863,-2.20703 -0.704,-0.416 -1.6649,-0.625 -2.8809,-0.625 z m -27.3594,0.28907 c -1.024,0 -1.968,0.20704 -2.832,0.62304 -0.8241,0.36628 -1.75719,0.9033 -2.78509,1.58985 v 11.1582 c 0.8141,0.24579 1.61339,0.48659 2.30459,0.69141 0.896,0.224 1.9035,0.33593 3.0235,0.33593 1.024,0 1.8412,-0.17534 2.4492,-0.52734 0.608,-0.352 1.0389,-1.04045 1.2949,-2.06445 0.288,-1.056 0.4317,-2.5746 0.4317,-4.5586 0,-1.95199 -0.1269,-3.44084 -0.3829,-4.46484 -0.256,-1.056 -0.672,-1.77616 -1.248,-2.16016 -0.576,-0.416 -1.3279,-0.62304 -2.2559,-0.62304 z" />
  </g>
</svg>
