<?xml version="1.0" encoding="UTF-8" standalone="no"?>
<!-- Created with Inkscape (http://www.inkscape.org/) -->

<svg
   width="264.00006"
   height="84"
   viewBox="0 0 264.00006 84"
   version="1.1"
   id="svg1"
   inkscape:version="1.3.2 (091e20e, 2023-11-25, custom)"
   sodipodi:docname="glass-buttons.svg"
   xmlns:inkscape="http://www.inkscape.org/namespaces/inkscape"
   xmlns:sodipodi="http://sodipodi.sourceforge.net/DTD/sodipodi-0.dtd"
   xmlns:xlink="http://www.w3.org/1999/xlink"
   xmlns="http://www.w3.org/2000/svg"
   xmlns:svg="http://www.w3.org/2000/svg">
  <sodipodi:namedview
     id="namedview1"
     pagecolor="#505050"
     bordercolor="#ffffff"
     borderopacity="1"
     inkscape:showpageshadow="0"
     inkscape:pageopacity="0"
     inkscape:pagecheckerboard="1"
     inkscape:deskcolor="#505050"
     inkscape:document-units="px"
     inkscape:zoom="2.3680549"
     inkscape:cx="991.31992"
     inkscape:cy="741.11457"
     inkscape:window-width="1920"
     inkscape:window-height="974"
     inkscape:window-x="-11"
     inkscape:window-y="-11"
     inkscape:window-maximized="1"
     inkscape:current-layer="layer1" />
  <defs
     id="defs1">
    <linearGradient
       id="linearGradient1497"
       inkscape:collect="always">
      <stop
         style="stop-color:#ffffff;stop-opacity:1;"
         offset="0"
         id="stop1497" />
      <stop
         style="stop-color:#141414;stop-opacity:1;"
         offset="0.51178449"
         id="stop1499" />
      <stop
         style="stop-color:#8f8f8f;stop-opacity:1;"
         offset="1"
         id="stop1498" />
    </linearGradient>
    <filter
       style="color-interpolation-filters:sRGB"
       inkscape:label="Drop Shadow"
       id="filter1497"
       x="-0.049999987"
       y="-0.20000002"
       width="1.1"
       height="1.4">
      <feFlood
         result="flood"
         in="SourceGraphic"
         flood-opacity="0.898039"
         flood-color="rgb(255,255,255)"
         id="feFlood1494" />
      <feGaussianBlur
         result="blur"
         in="SourceGraphic"
         stdDeviation="2.4999998"
         id="feGaussianBlur1494" />
      <feOffset
         result="offset"
         in="blur"
         dx="0.000000"
         dy="0.000000"
         id="feOffset1494" />
      <feComposite
         result="comp1"
         operator="out"
         in="flood"
         in2="offset"
         id="feComposite1494" />
      <feComposite
         result="fbSourceGraphic"
         operator="atop"
         in="comp1"
         in2="SourceGraphic"
         id="feComposite1495" />
      <feColorMatrix
         result="fbSourceGraphicAlpha"
         in="fbSourceGraphic"
         values="0 0 0 -1 0 0 0 0 -1 0 0 0 0 -1 0 0 0 0 1 0"
         id="feColorMatrix1495" />
      <feFlood
         id="feFlood1495"
         result="flood"
         in="fbSourceGraphic"
         flood-opacity="0.898039"
         flood-color="rgb(255,255,255)" />
      <feGaussianBlur
         id="feGaussianBlur1495"
         result="blur"
         in="fbSourceGraphic"
         stdDeviation="2.500000" />
      <feOffset
         id="feOffset1495"
         result="offset"
         in="blur"
         dx="0.000000"
         dy="0.000000" />
      <feComposite
         id="feComposite1496"
         result="comp1"
         operator="in"
         in="flood"
         in2="offset" />
      <feComposite
         id="feComposite1497"
         result="comp2"
         operator="over"
         in="fbSourceGraphic"
         in2="comp1" />
    </filter>
    <radialGradient
       inkscape:collect="always"
       xlink:href="#linearGradient1497"
       id="radialGradient1498"
       cx="998.19037"
       cy="717.73242"
       fx="998.19037"
       fy="717.73242"
       r="120.00002"
       gradientTransform="matrix(1,0,0,0.24999996,-3,521.29936)"
       gradientUnits="userSpaceOnUse" />
  </defs>
  <g
     inkscape:label="Layer 1"
     inkscape:groupmode="layer"
     id="layer1"
     transform="translate(-863.19037,-658.73242)">
    <path
       id="path1484"
       style="opacity:0.175;fill:url(#radialGradient1498);fill-opacity:1;stroke:none;stroke-width:4.123;stroke-linecap:round;stroke-linejoin:round;stroke-dasharray:none"
       d="m 884.79192,670.73244 c -5.31929,0 -9.60156,4.28228 -9.60156,9.60156 v 40.79688 c 0,5.31929 4.28227,9.60156 9.60156,9.60156 h 220.79688 c 5.3193,0 9.6016,-4.28227 9.6016,-9.60156 V 680.334 c 0,-5.31928 -4.2823,-9.60156 -9.6016,-9.60156 z m 46.4375,12.79297 h 3.07227 c 1.408,0 2.11328,0.72016 2.11328,2.16016 v 2.54297 c 0,1.43999 -0.70528,2.16015 -2.11328,2.16015 h -3.07227 c -1.40799,0 -2.11132,-0.72016 -2.11132,-2.16015 v -2.54297 c 0,-1.44 0.70333,-2.16016 2.11132,-2.16016 z m 38.73633,0 h 3.07227 c 1.408,0 2.11133,0.72016 2.11133,2.16016 v 2.54297 c 0,1.43999 -0.70333,2.16015 -2.11133,2.16015 h -3.07227 c -1.408,0 -2.11133,-0.72016 -2.11133,-2.16015 v -2.54297 c 0,-1.44 0.70333,-2.16016 2.11133,-2.16016 z m 71.47265,0 h 3.0723 c 1.408,0 2.1113,0.72016 2.1113,2.16016 v 2.54297 c 0,1.43999 -0.7033,2.16015 -2.1113,2.16015 h -3.0723 c -1.408,0 -2.1133,-0.72016 -2.1133,-2.16015 v -2.54297 c 0,-1.44 0.7053,-2.16016 2.1133,-2.16016 z m -18.9609,0.43164 c 1.632,0 3.4081,0.0971 5.3281,0.28906 1.92,0.16 3.7932,0.51069 5.6172,1.05469 l -0.4805,4.84766 c -1.408,-0.032 -3.0573,-0.0637 -4.9453,-0.0957 -1.888,-0.032 -3.7424,-0.0469 -5.5664,-0.0469 -0.896,0 -1.6647,0.0317 -2.3047,0.0957 -0.608,0.032 -1.1043,0.15882 -1.4883,0.38282 -0.384,0.19199 -0.6564,0.4961 -0.8164,0.9121 -0.16,0.416 -0.2383,0.99252 -0.2383,1.72852 0,1.12 0.2556,1.93527 0.7676,2.44727 0.544,0.512 1.4563,0.97657 2.7363,1.39257 l 6.3829,2.06446 c 2.656,0.896 4.4955,2.11244 5.5195,3.64843 1.024,1.536 1.5371,3.55088 1.5371,6.04688 0,1.888 -0.2239,3.45708 -0.6719,4.70508 -0.448,1.248 -1.1533,2.22373 -2.1133,2.92773 -0.96,0.704 -2.223,1.20028 -3.791,1.48828 -1.568,0.32 -3.4877,0.47852 -5.7597,0.47852 -1.088,0 -2.6403,-0.0783 -4.6563,-0.23828 -2.016,-0.128 -4.3201,-0.48064 -6.9121,-1.05664 l 0.4805,-5.1836 c 1.888,0.032 3.5185,0.0786 4.8945,0.14258 1.408,0.032 2.6096,0.0657 3.6016,0.0977 h 2.5918 c 1.28,0 2.2725,-0.0802 2.9765,-0.24024 0.736,-0.16 1.2472,-0.48093 1.5352,-0.96093 0.288,-0.48 0.4316,-1.16846 0.4316,-2.06446 0,-0.768 -0.1119,-1.37426 -0.3359,-1.82226 -0.192,-0.48 -0.5278,-0.84947 -1.0078,-1.10547 -0.448,-0.288 -1.0711,-0.54358 -1.8711,-0.76758 l -6.7207,-2.30469 c -2.528,-0.928 -4.321,-2.14248 -5.377,-3.64648 -1.056,-1.504 -1.584,-3.48913 -1.584,-5.95313 0,-1.91999 0.2239,-3.47225 0.6719,-4.65625 0.48,-1.216 1.2002,-2.16003 2.1602,-2.83203 0.992,-0.672 2.2569,-1.13462 3.7929,-1.39062 1.568,-0.256 3.4393,-0.38477 5.6153,-0.38477 z m -126.71878,0.625 h 7.58399 l 6.04687,23.90235 c 0.128,0.60799 0.25677,1.23304 0.38477,1.87304 0.16,0.608 0.28681,1.21622 0.38281,1.82422 h 1.24805 c 0.096,-0.608 0.20793,-1.23305 0.33593,-1.87305 0.16,-0.64 0.32047,-1.26309 0.48047,-1.87109 l 6,-23.85547 h 7.53711 l -9.02539,31.10352 c -0.16,0.576 -0.47898,1.05545 -0.95898,1.43945 -0.448,0.384 -0.99282,0.57617 -1.63282,0.57617 h -6.71875 c -0.672,0 -1.24851,-0.19217 -1.72851,-0.57617 -0.448,-0.384 -0.73528,-0.86345 -0.86328,-1.43945 z m 87.35938,2.83203 h 7.1523 v 6.57422 h 6.6231 v 4.65625 h -6.6231 v 11.47266 c 0,0.864 0.1922,1.48709 0.5762,1.87109 0.416,0.352 1.0876,0.5293 2.0156,0.5293 h 3.0723 l 0.7676,4.79883 c -0.576,0.192 -1.2793,0.35247 -2.1113,0.48047 -0.832,0.15999 -1.6641,0.27193 -2.4961,0.33593 -0.832,0.096 -1.5373,0.14453 -2.11332,0.14453 -2.144,0 -3.82307,-0.57651 -5.03907,-1.72851 -1.18399,-1.152 -1.77734,-2.76766 -1.77734,-4.84766 l -0.0254,-13.05664 h -4.15039 v -4.41601 l 4.14258,-0.2168 z m 71.4727,0 h 7.1503 v 6.57422 h 6.625 v 4.65625 h -6.625 v 11.47266 c 0,0.864 0.1922,1.48709 0.5762,1.87109 0.416,0.352 1.0896,0.5293 2.0176,0.5293 h 3.0703 l 0.7695,4.79883 c -0.576,0.192 -1.2812,0.35247 -2.1132,0.48047 -0.832,0.15999 -1.6641,0.27193 -2.4961,0.33593 -0.832,0.096 -1.5354,0.14453 -2.1114,0.14453 -2.144,0 -3.825,-0.57651 -5.041,-1.72851 -1.184,-1.152 -1.7754,-2.76766 -1.7754,-4.84766 l -0.025,-13.05664 h -4.1504 v -4.41601 l 4.1426,-0.2168 z m -103.29692,5.95117 c 1.152,0 2.40014,0.0485 3.74414,0.14454 1.344,0.064 2.65555,0.15911 3.93554,0.28711 1.28,0.12799 2.41621,0.28846 3.40821,0.48046 l -0.48047,4.41602 c -1.536,-0.032 -3.08825,-0.0488 -4.65625,-0.0488 -1.536,-0.032 -3.03972,-0.0469 -4.51172,-0.0469 -1.248,-0.032 -2.20691,-0.0171 -2.87891,0.0469 -0.672,0.064 -1.1534,0.22447 -1.4414,0.48047 -0.256,0.224 -0.38281,0.64005 -0.38281,1.24805 0,0.704 0.2407,1.18345 0.7207,1.43945 0.48,0.224 1.27844,0.48153 2.39844,0.76953 l 6.19336,1.48633 c 1.98399,0.512 3.45601,1.28069 4.41601,2.30469 0.96,0.992 1.43945,2.49572 1.43945,4.51172 0,1.98399 -0.36751,3.50454 -1.10351,4.56054 -0.736,1.056 -1.90391,1.79103 -3.50391,2.20703 -1.6,0.384 -3.66536,0.57618 -6.19336,0.57618 -0.992,0 -2.46401,-0.0466 -4.41601,-0.14258 -1.952,-0.096 -4.09565,-0.33671 -6.43164,-0.72071 l 0.48047,-4.41601 c 0.57599,0.032 1.31103,0.0637 2.20703,0.0957 h 2.92968 3.16797 c 1.632,0 2.87819,-0.0317 3.74219,-0.0957 0.864,-0.096 1.45734,-0.28817 1.77734,-0.57617 0.32,-0.288 0.48047,-0.71893 0.48047,-1.29492 0,-0.704 -0.2724,-1.18541 -0.8164,-1.44141 -0.544,-0.256 -1.4078,-0.52841 -2.5918,-0.81641 l -6,-1.48633 c -1.504,-0.416 -2.67191,-0.94398 -3.50391,-1.58398 -0.832,-0.64 -1.42534,-1.42552 -1.77734,-2.35352 -0.32,-0.92799 -0.47852,-2.03054 -0.47852,-3.31054 0,-1.632 0.31899,-2.92868 0.95899,-3.88867 0.672,-0.992 1.7448,-1.71216 3.2168,-2.16016 1.50399,-0.448 3.48717,-0.67188 5.95117,-0.67188 z m 132.09572,0 c 4,0 6.8638,0.68846 8.5918,2.06446 1.76,1.344 2.6406,3.35888 2.6406,6.04687 0.032,2.176 -0.5128,3.80849 -1.6328,4.89649 -1.12,1.056 -3.0547,1.58398 -5.8067,1.58398 h -8.4414 c 0.088,0.72028 0.2096,1.35551 0.377,1.87305 0.352,1.056 0.9434,1.79103 1.7754,2.20703 0.864,0.416 2.0487,0.625 3.5527,0.625 1.088,0 2.4313,-0.0337 4.0313,-0.0977 1.632,-0.096 3.2645,-0.23964 4.8965,-0.43164 l 0.6718,4.36914 c -0.928,0.448 -1.9839,0.79869 -3.1679,1.05469 -1.184,0.256 -2.4005,0.4333 -3.6485,0.5293 -1.248,0.128 -2.4476,0.1914 -3.5996,0.1914 -3.008,0 -5.4389,-0.43287 -7.2949,-1.29687 -1.824,-0.896 -3.1524,-2.25608 -3.9844,-4.08008 -0.8,-1.824 -1.2012,-4.15981 -1.2012,-7.00781 0,-3.104 0.4161,-5.56663 1.2481,-7.39063 0.832,-1.824 2.1455,-3.1375 3.9375,-3.9375 1.792,-0.8 4.1427,-1.19922 7.0547,-1.19922 z m -154.1758,0.62305 h 7.05664 v 23.71289 h -7.05664 z m 38.73633,0 h 7.05664 v 23.71289 h -7.05664 z m 71.47267,0 h 7.0547 v 23.71289 h -7.0547 z m 44.207,4.36914 c -1.312,0 -2.3363,0.17535 -3.0723,0.52735 -0.736,0.352 -1.2471,1.02362 -1.5351,2.01562 -0.216,0.74401 -0.3249,1.82425 -0.3789,3.07227 h 6.5703 c 1.088,0 1.7765,-0.22388 2.0645,-0.67188 0.32,-0.48 0.4804,-1.1348 0.4804,-1.9668 -0.032,-1.11999 -0.3678,-1.88868 -1.0078,-2.30468 -0.608,-0.448 -1.6491,-0.67188 -3.1211,-0.67188 z" />
    <path
       id="path1485"
       style="font-variation-settings:normal;opacity:0.911;mix-blend-mode:screen;vector-effect:none;fill:#000000;fill-opacity:1;stroke:none;stroke-width:4.123;stroke-linecap:round;stroke-linejoin:round;stroke-miterlimit:4;stroke-dasharray:none;stroke-dashoffset:0;stroke-opacity:1;-inkscape-stroke:none;filter:url(#filter1497);stop-color:#000000;stop-opacity:1"
       d="m 884.79191,670.73245 c -5.31929,0 -9.60156,4.28228 -9.60156,9.60156 v 40.79683 c 0,5.3193 4.28227,9.6016 9.60156,9.6016 h 220.79689 c 5.3193,0 9.6016,-4.2823 9.6016,-9.6016 v -40.79683 c 0,-5.31928 -4.2823,-9.60156 -9.6016,-9.60156 z m 46.4375,12.79297 h 3.07227 c 1.408,0 2.11328,0.72016 2.11328,2.16016 v 2.54296 c 0,1.44 -0.70528,2.1602 -2.11328,2.1602 h -3.07227 c -1.40799,0 -2.11132,-0.7202 -2.11132,-2.1602 v -2.54296 c 0,-1.44 0.70333,-2.16016 2.11132,-2.16016 z m 38.73629,0 h 3.0723 c 1.408,0 2.1113,0.72016 2.1113,2.16016 v 2.54296 c 0,1.44 -0.7033,2.1602 -2.1113,2.1602 h -3.0723 c -1.408,0 -2.1113,-0.7202 -2.1113,-2.1602 v -2.54296 c 0,-1.44 0.7033,-2.16016 2.1113,-2.16016 z m 71.4727,0 h 3.0723 c 1.408,0 2.1113,0.72016 2.1113,2.16016 v 2.54296 c 0,1.44 -0.7033,2.1602 -2.1113,2.1602 h -3.0723 c -1.408,0 -2.1133,-0.7202 -2.1133,-2.1602 v -2.54296 c 0,-1.44 0.7053,-2.16016 2.1133,-2.16016 z m -18.9609,0.43164 c 1.632,0 3.4081,0.0971 5.3281,0.28906 1.92,0.16 3.7932,0.51069 5.6172,1.05469 l -0.4805,4.84763 c -1.408,-0.032 -3.0573,-0.064 -4.9453,-0.096 -1.888,-0.032 -3.7424,-0.047 -5.5664,-0.047 -0.896,0 -1.6647,0.032 -2.3047,0.096 -0.608,0.032 -1.1043,0.1588 -1.4883,0.3828 -0.384,0.192 -0.6564,0.4961 -0.8164,0.9121 -0.16,0.416 -0.2383,0.9926 -0.2383,1.7286 0,1.12 0.2556,1.9352 0.7676,2.4472 0.544,0.512 1.4563,0.9766 2.7363,1.3926 l 6.3829,2.0645 c 2.656,0.896 4.4955,2.1124 5.5195,3.6484 1.024,1.536 1.5371,3.5509 1.5371,6.0469 0,1.888 -0.2239,3.4571 -0.6719,4.7051 -0.448,1.248 -1.1533,2.2237 -2.1133,2.9277 -0.96,0.704 -2.223,1.2003 -3.791,1.4883 -1.568,0.32 -3.4877,0.4785 -5.7597,0.4785 -1.088,0 -2.6403,-0.078 -4.6563,-0.2383 -2.016,-0.128 -4.3201,-0.4806 -6.9121,-1.0566 l 0.4805,-5.1836 c 1.888,0.032 3.5185,0.079 4.8945,0.1425 1.408,0.032 2.6096,0.066 3.6016,0.098 h 2.5918 c 1.28,0 2.2725,-0.08 2.9765,-0.2402 0.736,-0.16 1.2472,-0.4809 1.5352,-0.9609 0.288,-0.48 0.4316,-1.1685 0.4316,-2.0645 0,-0.768 -0.1119,-1.3742 -0.3359,-1.8222 -0.192,-0.48 -0.5278,-0.8495 -1.0078,-1.1055 -0.448,-0.288 -1.0711,-0.5436 -1.8711,-0.7676 l -6.7207,-2.3047 c -2.528,-0.928 -4.321,-2.1425 -5.377,-3.6465 -1.056,-1.504 -1.584,-3.4891 -1.584,-5.9531 0,-1.92 0.2239,-3.4722 0.6719,-4.6562 0.48,-1.21604 1.2002,-2.16007 2.1602,-2.83207 0.992,-0.672 2.2569,-1.13462 3.7929,-1.39062 1.568,-0.256 3.4393,-0.38477 5.6153,-0.38477 z m -126.71879,0.625 h 7.58399 l 6.04687,23.90238 c 0.128,0.608 0.25677,1.233 0.38477,1.873 0.16,0.608 0.28681,1.2162 0.38281,1.8242 h 1.24805 c 0.096,-0.608 0.20793,-1.233 0.33593,-1.873 0.16,-0.64 0.32047,-1.2631 0.48047,-1.8711 l 6,-23.85548 h 7.53711 l -9.02539,31.10348 c -0.16,0.576 -0.47898,1.0555 -0.95898,1.4395 -0.448,0.384 -0.99282,0.5762 -1.63282,0.5762 h -6.71875 c -0.672,0 -1.24851,-0.1922 -1.72851,-0.5762 -0.448,-0.384 -0.73528,-0.8635 -0.86328,-1.4395 z m 87.35939,2.83203 h 7.1523 v 6.57425 h 6.6231 v 4.6562 h -6.6231 v 11.4727 c 0,0.864 0.1922,1.4871 0.5762,1.8711 0.416,0.352 1.0876,0.5293 2.0156,0.5293 h 3.0723 l 0.7676,4.7988 c -0.576,0.192 -1.2794,0.3525 -2.1114,0.4805 -0.832,0.16 -1.6641,0.2719 -2.496,0.3359 -0.832,0.096 -1.5373,0.1445 -2.1133,0.1445 -2.144,0 -3.8231,-0.5765 -5.0391,-1.7285 -1.184,-1.152 -1.7773,-2.7676 -1.7773,-4.8476 l -0.025,-13.0567 h -4.1504 v -4.416 l 4.1426,-0.2168 z m 71.4727,0 h 7.1503 v 6.57425 h 6.625 v 4.6562 h -6.625 v 11.4727 c 0,0.864 0.1922,1.4871 0.5762,1.8711 0.416,0.352 1.0896,0.5293 2.0176,0.5293 h 3.0703 l 0.7695,4.7988 c -0.576,0.192 -1.2812,0.3525 -2.1132,0.4805 -0.832,0.16 -1.6641,0.2719 -2.4961,0.3359 -0.832,0.096 -1.5354,0.1445 -2.1114,0.1445 -2.144,0 -3.825,-0.5765 -5.041,-1.7285 -1.184,-1.152 -1.7754,-2.7676 -1.7754,-4.8476 l -0.025,-13.0567 h -4.1504 v -4.416 l 4.1426,-0.2168 z m -103.2969,5.95115 c 1.152,0 2.4001,0.048 3.7441,0.1446 1.344,0.064 2.6556,0.1591 3.9355,0.2871 1.28,0.128 2.4163,0.2884 3.4083,0.4804 l -0.4805,4.416 c -1.536,-0.032 -3.0883,-0.049 -4.6563,-0.049 -1.536,-0.032 -3.0397,-0.047 -4.5117,-0.047 -1.248,-0.032 -2.2069,-0.017 -2.8789,0.047 -0.672,0.064 -1.1534,0.2245 -1.4414,0.4805 -0.256,0.224 -0.3828,0.6401 -0.3828,1.2481 0,0.704 0.2407,1.1834 0.7207,1.4394 0.48,0.224 1.2784,0.4815 2.3984,0.7695 l 6.1934,1.4864 c 1.984,0.512 3.456,1.2807 4.416,2.3047 0.96,0.992 1.4395,2.4957 1.4395,4.5117 0,1.984 -0.3676,3.5045 -1.1035,4.5605 -0.7361,1.056 -1.904,1.7911 -3.504,2.2071 -1.6,0.384 -3.6653,0.5761 -6.1933,0.5761 -0.992,0 -2.464,-0.047 -4.416,-0.1425 -1.952,-0.096 -4.0957,-0.3368 -6.4317,-0.7208 l 0.4805,-4.416 c 0.576,0.032 1.311,0.064 2.207,0.096 h 2.9297 3.168 c 1.632,0 2.8782,-0.032 3.7422,-0.096 0.864,-0.096 1.4573,-0.2881 1.7773,-0.5761 0.32,-0.288 0.4805,-0.719 0.4805,-1.295 0,-0.704 -0.2724,-1.1854 -0.8164,-1.4414 -0.544,-0.256 -1.4078,-0.5284 -2.5918,-0.8164 l -6,-1.4863 c -1.504,-0.416 -2.6719,-0.944 -3.5039,-1.584 -0.832,-0.64 -1.4254,-1.4255 -1.7774,-2.3535 -0.32,-0.928 -0.4785,-2.0305 -0.4785,-3.3105 0,-1.632 0.319,-2.9287 0.959,-3.8887 0.672,-0.992 1.7448,-1.7122 3.2168,-2.1602 1.504,-0.448 3.4872,-0.6719 5.9512,-0.6719 z m 132.0957,0 c 4,0 6.8638,0.6885 8.5918,2.0645 1.76,1.344 2.6406,3.3589 2.6406,6.0468 0.032,2.176 -0.5128,3.8085 -1.6328,4.8965 -1.12,1.056 -3.0547,1.584 -5.8067,1.584 h -8.4414 c 0.088,0.7203 0.2096,1.3555 0.377,1.8731 0.352,1.056 0.9434,1.791 1.7754,2.207 0.864,0.416 2.0487,0.625 3.5527,0.625 1.088,0 2.4313,-0.034 4.0313,-0.098 1.632,-0.096 3.2645,-0.2396 4.8965,-0.4316 l 0.6718,4.3691 c -0.928,0.448 -1.9839,0.7987 -3.1679,1.0547 -1.184,0.256 -2.4005,0.4333 -3.6485,0.5293 -1.248,0.128 -2.4476,0.1914 -3.5996,0.1914 -3.008,0 -5.4389,-0.4329 -7.2949,-1.2969 -1.824,-0.896 -3.1524,-2.2561 -3.9844,-4.0801 -0.8,-1.824 -1.2012,-4.1598 -1.2012,-7.0078 0,-3.104 0.4161,-5.5666 1.2481,-7.3906 0.832,-1.824 2.1455,-3.1375 3.9375,-3.9375 1.792,-0.8 4.1427,-1.1992 7.0547,-1.1992 z m -154.17581,0.6231 h 7.05664 v 23.7129 h -7.05664 z m 38.73631,0 h 7.0567 v 23.7129 h -7.0567 z m 71.4727,0 h 7.0547 v 23.7129 h -7.0547 z m 44.207,4.3691 c -1.312,0 -2.3363,0.1754 -3.0723,0.5274 -0.736,0.352 -1.2471,1.0236 -1.5351,2.0156 -0.216,0.744 -0.3249,1.8242 -0.3789,3.0722 h 6.5703 c 1.088,0 1.7765,-0.2238 2.0645,-0.6718 0.32,-0.48 0.4804,-1.1348 0.4804,-1.9668 -0.032,-1.12 -0.3678,-1.8887 -1.0078,-2.3047 -0.608,-0.448 -1.6491,-0.6719 -3.1211,-0.6719 z"
       inkscape:export-filename="..\..\..\Desktop\Code\freelance-portfolio\public\assets\images\buttons\visitButton.svg"
       inkscape:export-xdpi="96"
       inkscape:export-ydpi="96" />
  </g>
</svg>
